HIERARCHY
ROOT SimulationBone
{
	OFFSET 0.000000 0.000000 0.000000
	CHANNELS 6 Xposition Yposition Zposition Zrotation Yrotation Xrotation 
	JOINT Hips
	{
		OFFSET 0.000000 0.000000 0.000000
		CHANNELS 6 Xposition Yposition Zposition Zrotation Yrotation Xrotation 
		JOINT RightUpLeg
		{
			OFFSET 0.103454 1.857828 10.548502
			CHANNELS 3 Zrotation Yrotation Xrotation
			JOINT RightLeg
			{
				OFFSET 43.500000 -0.000023 -0.000008
				CHANNELS 3 Zrotation Yrotation Xrotation
				JOINT RightFoot
				{
					OFFSET 42.372192 0.000008 0.000008
					CHANNELS 3 Zrotation Yrotation Xrotation
					JOINT RightToe
					{
						OFFSET 17.299997 -0.000001 0.000000
						CHANNELS 3 Zrotation Yrotation Xrotation
						End Site
						{
							OFFSET 0.000000 0.000000 0.000000
						}
					}
				}
			}
		}
		JOINT LeftUpLeg
		{
			OFFSET 0.103459 1.857828 -10.548505
			CHANNELS 3 Zrotation Yrotation Xrotation
			JOINT LeftLeg
			{
				OFFSET 43.500046 -0.000027 0.000015
				CHANNELS 3 Zrotation Yrotation Xrotation
				JOINT LeftFoot
				{
					OFFSET 42.372261 -0.000008 0.000019
					CHANNELS 3 Zrotation Yrotation Xrotation
					JOINT LeftToe
					{
						OFFSET 17.299992 -0.000006 -0.000002
						CHANNELS 3 Zrotation Yrotation Xrotation
						End Site
						{
							OFFSET 0.000000 0.000000 0.000000
						}
					}
				}
			}
		}
		JOINT Spine
		{
			OFFSET 6.901967 -2.603729 0.000006
			CHANNELS 3 Zrotation Yrotation Xrotation
			JOINT Spine1
			{
				OFFSET 12.588098 -0.000001 -0.000005
				CHANNELS 3 Zrotation Yrotation Xrotation
				JOINT Spine2
				{
					OFFSET 12.343207 0.000001 -0.000003
					CHANNELS 3 Zrotation Yrotation Xrotation
					JOINT Neck
					{
						OFFSET 25.832897 -0.000006 -0.000001
						CHANNELS 3 Zrotation Yrotation Xrotation
						JOINT Head
						{
							OFFSET 11.766602 0.000010 0.000005
							CHANNELS 3 Zrotation Yrotation Xrotation
							End Site
							{
								OFFSET 0.000000 0.000000 0.000000
							}
						}
					}
					JOINT RightShoulder
					{
						OFFSET 19.745901 -1.480368 6.000114
						CHANNELS 3 Zrotation Yrotation Xrotation
						JOINT RightArm
						{
							OFFSET 11.284125 -0.000009 -0.000026
							CHANNELS 3 Zrotation Yrotation Xrotation
							JOINT RightForeArm
							{
								OFFSET 33.000046 0.000005 0.000037
								CHANNELS 3 Zrotation Yrotation Xrotation
								JOINT RightHand
								{
									OFFSET 25.200003 0.000016 -0.000001
									CHANNELS 3 Zrotation Yrotation Xrotation
									End Site
									{
										OFFSET 0.000000 0.000000 0.000000
									}
								}
							}
						}
					}
					JOINT LeftShoulder
					{
						OFFSET 19.746088 -1.480377 -6.000074
						CHANNELS 3 Zrotation Yrotation Xrotation
						JOINT LeftArm
						{
							OFFSET 11.284132 -0.000015 -0.000021
							CHANNELS 3 Zrotation Yrotation Xrotation
							JOINT LeftForeArm
							{
								OFFSET 33.000107 0.000015 0.000018
								CHANNELS 3 Zrotation Yrotation Xrotation
								JOINT LeftHand
								{
									OFFSET 25.199774 0.000138 0.000420
									CHANNELS 3 Zrotation Yrotation Xrotation
									End Site
									{
										OFFSET 0.000000 0.000000 0.000000
									}
								}
							}
						}
					}
				}
			}
		}
	}
}
MOTION
Frames: 5
Frame Time: 0.033333
175.246615 0.000000 412.157373 180.000000 73.723613 180.000000 -4.340276 88.432877 1.477130 84.500714 0.890687 174.730346 151.598084 8.146099 169.798653 -29.383785 3.611777 -4.803571 82.904344 4.485941 5.281935 21.454555 0.003113 0.000018 162.973627 9.242909 -166.779887 -75.990110 -1.228369 1.660414 69.945987 2.621385 10.931790 21.454560 -0.003092 0.000000 8.568086 -0.374971 0.912606 7.117170 -0.805158 1.800503 6.799209 -0.794407 1.805325 1.685942 -13.464880 3.337426 -30.587909 6.724551 -2.784767 178.216178 -80.744878 0.303812 9.214946 65.504936 26.860308 -39.391965 -12.568116 1.310957 7.311599 1.726348 15.891606 141.816010 84.946188 -36.837529 -59.229065 -48.779736 -6.666296 -30.531963 20.314951 -1.580261 11.628733 4.477144 4.940509 
174.995819 0.000000 408.050208 180.000000 73.039683 180.000000 -4.710132 89.199898 1.100671 85.160287 1.753137 175.197408 155.224177 8.111290 172.162827 -28.808908 3.894704 -5.319548 84.383333 4.563678 4.408650 21.454558 0.003111 0.000017 158.392510 8.687194 -168.129505 -79.386353 -1.551956 3.355136 70.499000 1.305230 10.800913 21.454558 -0.003099 0.000004 8.537237 -0.124285 0.608592 7.060154 -0.285321 1.208485 6.742128 -0.278151 1.210184 2.357919 -12.604143 3.492939 -26.938251 6.992652 -2.194633 -177.945894 -80.612215 -3.588592 9.573555 64.482197 27.733206 -45.777813 -12.881067 1.508631 5.397333 3.313639 23.359793 148.595287 84.972157 -30.018657 -55.820397 -52.689135 -8.510214 -24.295596 14.117873 -1.075069 15.032138 -2.004116 0.219058 
174.676603 0.000000 404.021319 180.000000 72.387587 180.000000 -4.973159 89.767982 0.954056 85.698631 2.387763 176.102329 158.620803 7.770791 174.151792 -28.493162 3.708024 -5.392637 86.050890 4.424369 3.839893 21.454555 0.003099 0.000017 154.312237 7.993195 -169.556755 -80.234075 -1.596856 4.380786 70.172421 0.739399 11.220080 21.454550 -0.003088 -0.000001 8.526637 0.012095 0.388101 7.040413 0.000676 0.776209 6.722345 0.005223 0.776187 2.578491 -11.370599 2.946139 -25.911805 7.705878 -2.735404 -176.199715 -80.881843 -5.364694 10.341193 63.566843 27.974846 -52.492394 -12.447967 1.692185 2.905510 1.520351 25.865957 163.344234 84.543105 -15.191744 -47.477591 -57.258080 -13.639457 -21.230840 10.993910 -0.832540 17.846878 -4.910614 -1.386628 
174.288939 0.000000 400.067760 180.000000 71.766209 180.000000 -5.192562 90.145157 0.947300 86.010242 2.927398 177.228293 161.611305 6.984804 175.260018 -28.418774 3.288356 -4.825082 87.915784 3.912762 3.575569 21.454560 0.003118 0.000019 150.557887 7.175402 -171.235479 -78.771773 -1.443816 4.862208 70.079578 0.809720 12.430154 21.454553 -0.003097 0.000002 8.493367 0.112437 0.200378 6.974275 0.212686 0.407148 6.656173 0.215003 0.405852 2.502501 -9.939670 2.077638 -26.576445 8.235240 -3.663365 -175.667807 -81.559152 -5.912572 11.152093 63.152434 27.446791 -58.395829 -11.402270 1.827914 0.477380 -2.235004 23.631398 179.669000 83.676839 1.250912 -33.494302 -61.065197 -25.229413 -20.855998 10.350078 -0.786339 18.247829 -4.465538 1.014312 
173.832795 0.000000 396.186587 180.000000 71.174431 180.000000 -5.433196 90.271103 0.933826 86.041596 3.112951 178.472933 164.129377 6.487002 175.891851 -28.450069 3.141935 -4.054208 89.825047 3.260027 3.265928 21.454555 0.003106 0.000017 147.089203 6.386090 -172.896171 -75.096748 -1.397636 5.828976 70.497381 0.349517 13.327431 21.454550 -0.003088 0.000001 8.412329 0.161309 -0.073697 6.811646 0.326705 -0.137786 6.493535 0.325739 -0.139767 2.227304 -8.597993 1.319916 -27.828040 8.317840 -4.360051 -175.380584 -82.217494 -6.211433 11.891297 63.086148 26.047025 -63.067515 -10.202771 1.920679 -1.470904 -5.721935 18.723854 -166.355855 82.712286 15.371247 -15.981960 -62.612645 -41.464805 -22.255302 10.709407 -0.827419 16.608068 -2.257366 5.056883 
